<svg width="32" height="32" viewBox="0 0 32 32" fill="none" xmlns="http://www.w3.org/2000/svg">
<rect width="32" height="32" fill="black"/>
<path d="M7.66309 5.83301C8.66161 5.83301 9.49293 6.65876 9.49316 7.7041C9.49316 8.74965 8.66175 9.57617 7.66309 9.57617C6.66453 9.57604 5.83301 8.74957 5.83301 7.7041C5.83324 6.65885 6.66467 5.83314 7.66309 5.83301Z" stroke="white" stroke-width="1.66667"/>
<path d="M7.66309 21.424C8.66161 21.424 9.49293 22.2497 9.49316 23.295C9.49316 24.3406 8.66175 25.1671 7.66309 25.1671C6.66453 25.167 5.83301 24.3405 5.83301 23.295C5.83324 22.2498 6.66467 21.4241 7.66309 21.424Z" stroke="white" stroke-width="1.66667"/>
<path d="M18.0031 8.37854C19.0016 8.37854 19.8329 9.20429 19.8332 10.2496C19.8332 11.2952 19.0017 12.1217 18.0031 12.1217C17.0045 12.1216 16.173 11.2951 16.173 10.2496C16.1732 9.20438 17.0047 8.37868 18.0031 8.37854Z" stroke="white" stroke-width="1.66667"/>
<path d="M7.82001 21.3863V9.45447" stroke="white" stroke-width="2"/>
<path d="M18.16 12.1591C18.1078 13.2197 18.0033 15.9772 14.0866 16.7727C11.2667 17.0909 7.66331 18.0454 7.81997 20.75" stroke="white" stroke-width="2"/>
<path d="M15.1233 26.09C14.6733 26.09 14.2833 26.015 13.9533 25.865C13.6233 25.715 13.3683 25.502 13.1883 25.226C13.0143 24.944 12.9243 24.614 12.9183 24.236H14.0433C14.0433 24.506 14.1393 24.719 14.3313 24.875C14.5293 25.025 14.7963 25.1 15.1323 25.1C15.4563 25.1 15.7083 25.025 15.8883 24.875C16.0743 24.725 16.1673 24.518 16.1673 24.254C16.1673 24.032 16.1013 23.84 15.9693 23.678C15.8433 23.51 15.6603 23.396 15.4203 23.336L14.6643 23.129C14.1483 22.997 13.7493 22.76 13.4673 22.418C13.1913 22.076 13.0533 21.662 13.0533 21.176C13.0533 20.804 13.1373 20.48 13.3053 20.204C13.4733 19.928 13.7103 19.715 14.0163 19.565C14.3283 19.415 14.6943 19.34 15.1143 19.34C15.7503 19.34 16.2543 19.505 16.6263 19.835C16.9983 20.159 17.1873 20.597 17.1933 21.149H16.0683C16.0683 20.891 15.9843 20.69 15.8163 20.546C15.6483 20.396 15.4113 20.321 15.1053 20.321C14.8113 20.321 14.5833 20.39 14.4213 20.528C14.2593 20.666 14.1783 20.861 14.1783 21.113C14.1783 21.341 14.2383 21.536 14.3583 21.698C14.4843 21.854 14.6643 21.965 14.8983 22.031L15.6813 22.247C16.2033 22.379 16.6023 22.616 16.8783 22.958C17.1543 23.294 17.2923 23.711 17.2923 24.209C17.2923 24.581 17.2023 24.911 17.0223 25.199C16.8423 25.481 16.5903 25.7 16.2663 25.856C15.9423 26.012 15.5613 26.09 15.1233 26.09ZM21.0418 26C20.5678 26 20.1958 25.868 19.9258 25.604C19.6618 25.34 19.5298 24.977 19.5298 24.515V22.067H18.1888V21.05H19.5298V19.655H20.6638V21.05H22.5628V22.067H20.6638V24.515C20.6638 24.827 20.8168 24.983 21.1228 24.983H22.4728V26H21.0418ZM25.4752 26.09C24.9832 26.09 24.5842 25.919 24.2782 25.577C23.9782 25.235 23.8282 24.776 23.8282 24.2V22.859C23.8282 22.277 23.9782 21.815 24.2782 21.473C24.5782 21.131 24.9772 20.96 25.4752 20.96C25.8832 20.96 26.2072 21.077 26.4472 21.311C26.6872 21.539 26.8072 21.854 26.8072 22.256L26.5552 21.995H26.8162L26.7802 20.816V19.43H27.9052V26H26.8072V25.055H26.5552L26.8072 24.794C26.8072 25.196 26.6872 25.514 26.4472 25.748C26.2072 25.976 25.8832 26.09 25.4752 26.09ZM25.8712 25.118C26.1592 25.118 26.3812 25.034 26.5372 24.866C26.6992 24.692 26.7802 24.452 26.7802 24.146V22.904C26.7802 22.598 26.6992 22.361 26.5372 22.193C26.3812 22.019 26.1592 21.932 25.8712 21.932C25.5832 21.932 25.3582 22.016 25.1962 22.184C25.0342 22.352 24.9532 22.592 24.9532 22.904V24.146C24.9532 24.458 25.0342 24.698 25.1962 24.866C25.3582 25.034 25.5832 25.118 25.8712 25.118Z" fill="white"/>
</svg>
